<svg width="37" height="41" viewBox="0 0 37 41" fill="none" xmlns="http://www.w3.org/2000/svg">
<path fill-rule="evenodd" clip-rule="evenodd" d="M36.1267 10.8612L35.8467 10.3612C35.4855 9.75659 34.9761 9.25407 34.3667 8.90121L20.9467 1.16122C20.3391 0.808716 19.6493 0.622456 18.9467 0.621216H18.3667C17.6641 0.622456 16.9743 0.808716 16.3667 1.16122L2.94675 8.92121C2.34069 9.27173 1.83727 9.77515 1.48675 10.3812L1.20675 10.8812C0.854248 11.4889 0.667988 12.1787 0.666748 12.8812V28.3812C0.667988 29.0838 0.854248 29.7736 1.20675 30.3812L1.48675 30.8812C1.84633 31.4802 2.34773 31.9816 2.94675 32.3412L16.3867 40.0812C16.9913 40.441 17.6831 40.6278 18.3867 40.6212H18.9467C19.6493 40.62 20.3391 40.4338 20.9467 40.0812L34.3667 32.3212C34.9787 31.9786 35.4841 31.4732 35.8267 30.8612L36.1267 30.3612C36.4749 29.7518 36.6609 29.0632 36.6667 28.3612V12.8612C36.6655 12.1587 36.4793 11.4689 36.1267 10.8612ZM18.3667 4.62122H18.9467L30.6667 11.3812L18.6667 18.3012L6.66675 11.3812L18.3667 4.62122ZM20.6667 35.6212L32.3667 28.8612L32.6667 28.3612V14.8412L20.6667 21.7812V35.6212Z" fill="black"/>
</svg>
