<?xml version="1.0" encoding="utf-8"?>
<!-- Generator: Adobe Illustrator 24.2.3, SVG Export Plug-In . SVG Version: 6.00 Build 0)  -->
<svg version="1.1" id="Layer_1" xmlns="http://www.w3.org/2000/svg" xmlns:xlink="http://www.w3.org/1999/xlink" x="0px" y="0px"
	 viewBox="0 0 385 115.4" style="enable-background:new 0 0 385 115.4;" xml:space="preserve">
<style type="text/css">
	.st0{fill:#FFFFFF;filter:url(#Adobe_OpacityMaskFilter);}
	.st1{fill:#FFFFFF;}
	.st2{mask:url(#mask0_18_1841_1_);}
	.st3{fill:#FEAE01;}
	.st4{fill:#D5060B;}
	.st5{fill:url(#SVGID_1_);}
	.st6{fill:url(#SVGID_2_);}
	.st7{fill:url(#SVGID_3_);}
	.st8{fill:url(#SVGID_4_);}
	.st9{fill:url(#SVGID_5_);}
	.st10{fill:url(#SVGID_6_);}
	.st11{fill:#FFFFFF;filter:url(#Adobe_OpacityMaskFilter_1_);}
	.st12{mask:url(#path-10-outside-1_18_1841_1_);fill:none;stroke:#004A8E;stroke-width:5.5111;}
	.st13{fill:#FFFFFF;filter:url(#Adobe_OpacityMaskFilter_2_);}
	.st14{mask:url(#path-10-outside-1_18_1841_2_);fill:none;stroke:#004A8E;stroke-width:5.5111;}
	.st15{fill:#FFFFFF;filter:url(#Adobe_OpacityMaskFilter_3_);}
	.st16{mask:url(#path-10-outside-1_18_1841_3_);fill:none;stroke:#004A8E;stroke-width:5.5111;}
	.st17{fill:#FFFFFF;filter:url(#Adobe_OpacityMaskFilter_4_);}
	.st18{mask:url(#path-10-outside-1_18_1841_4_);fill:none;stroke:#004A8E;stroke-width:5.5111;}
	.st19{fill:#FFFFFF;filter:url(#Adobe_OpacityMaskFilter_5_);}
	.st20{mask:url(#path-10-outside-1_18_1841_5_);fill:none;stroke:#004A8E;stroke-width:5.5111;}
	.st21{fill:#FFFFFF;filter:url(#Adobe_OpacityMaskFilter_6_);}
	.st22{mask:url(#path-10-outside-1_18_1841_6_);fill:none;stroke:#004A8E;stroke-width:5.5111;}
</style>
<defs>
	<filter id="Adobe_OpacityMaskFilter" filterUnits="userSpaceOnUse" x="-75" y="-73.3" width="531.9" height="360.1">
		<feColorMatrix  type="matrix" values="1 0 0 0 0  0 1 0 0 0  0 0 1 0 0  0 0 0 1 0"/>
	</filter>
</defs>
<mask maskUnits="userSpaceOnUse" x="-75" y="-73.3" width="531.9" height="360.1" id="mask0_18_1841_1_">
	<path class="st0" d="M46.2,56.7c0,11.2-9,20.2-20.2,20.2c-11.2,0-20.2-9-20.2-20.2c0-11.2,9-20.2,20.2-20.2
		C37.2,36.5,46.2,45.5,46.2,56.7z"/>
	<path class="st1" d="M74.1,106.3c-3.1,0.2-5.4-0.7-7.1-2.7c-1.6-2-2.4-4.6-2.4-7.7c0-2.4,0.6-4.5,1.7-6.2c1.1-1.8,2.9-2.7,5.2-2.9
		l3.2-0.3c2.8-0.2,4.8-0.9,6.1-2.3c1.3-1.4,2-3.7,2-6.9V22.8c0-4.1,0.9-7.1,2.8-9.2c1.8-2.1,4.4-3.2,7.8-3.2c3.4,0,6,1.1,7.8,3.2
		c1.8,2,2.8,5.1,2.8,9.2V77c0,6.1-1,11.3-2.9,15.5c-1.9,4.2-4.8,7.4-8.6,9.7c-3.8,2.2-8.5,3.5-14.1,3.9L74.1,106.3z"/>
	<path class="st1" d="M125.4,78.9c-2.3,0-4.2-0.9-5.7-2.7c-1.5-1.8-2.3-4-2.3-6.6c0-2.7,0.8-4.8,2.3-6.5c1.5-1.8,3.4-2.7,5.7-2.7
		h22.8c2.3,0,4.2,0.9,5.7,2.7c1.5,1.7,2.3,3.9,2.3,6.5c0,2.7-0.8,4.9-2.3,6.6c-1.5,1.8-3.4,2.7-5.7,2.7H125.4z"/>
	<path class="st1" d="M195.1,106.5c-2.8,0-5.1-0.8-6.9-2.3c-1.8-1.6-3.1-4-4.1-7.3l-22.4-72.1c-1.2-4-1-7.3,0.6-10.1
		c1.7-2.8,4.6-4.2,8.8-4.2c2.8,0,5.1,0.8,6.7,2.4c1.6,1.5,2.9,3.9,3.8,7.2l17.1,59.4h-5.4L211.6,20c1.1-3.3,2.4-5.7,4-7.2
		c1.6-1.6,3.7-2.4,6.2-2.4c2.5,0,4.6,0.8,6.1,2.4c1.5,1.5,2.8,3.9,3.8,7.3L249,79.4h-4.6L262,20c0.9-3.3,2.1-5.7,3.7-7.2
		c1.6-1.6,3.8-2.4,6.7-2.4c3.5,0,6.1,1.4,7.7,4.2c1.7,2.7,1.9,6.1,0.6,10.1l-22.6,72.2c-1,3.2-2.4,5.6-4.1,7.2
		c-1.7,1.5-3.9,2.3-6.8,2.3c-2.9,0-5.2-0.8-7-2.3c-1.7-1.6-3-4-4-7.3l-16.2-52.6h2.9l-16.5,52.7c-1.1,3.2-2.5,5.6-4.1,7.2
		C200.3,105.7,198,106.5,195.1,106.5z"/>
	<path class="st1" d="M307,106.5c-3.2,0-5.7-1.1-7.5-3.3c-1.8-2.2-2.6-5.4-2.6-9.6v-42c0-4.2,0.9-7.3,2.6-9.6
		c1.8-2.2,4.3-3.3,7.5-3.3c3.3,0,5.8,1.1,7.6,3.3c1.8,2.2,2.8,5.4,2.8,9.6v42c0,4.2-0.9,7.3-2.6,9.6
		C312.9,105.4,310.4,106.5,307,106.5z M307,29.3c-3.6,0-6.4-1-8.4-2.9c-1.9-1.9-2.9-4.8-2.9-8.5c0-3.6,1-6.4,2.9-8.4
		c2-1.9,4.8-2.9,8.4-2.9c3.8,0,6.6,1,8.5,2.9c1.9,1.9,2.9,4.7,2.9,8.4c0,3.7-1,6.6-2.9,8.5C313.6,28.4,310.7,29.3,307,29.3z"/>
	<path class="st1" d="M351.7,106.7c-3.4,0-6.8-0.3-10.3-0.9c-3.4-0.5-6.6-1.6-9.4-3.1c-1.9-0.9-3.3-2.1-4.1-3.6
		c-0.8-1.5-1.1-3.1-1.1-4.8c0.1-1.7,0.5-3.2,1.3-4.5c0.8-1.4,1.9-2.4,3.2-2.9c1.4-0.6,2.9-0.6,4.6,0.1c3.2,1.3,6.1,2.3,8.6,2.9
		c2.6,0.5,5.1,0.8,7.5,0.8c2.8,0,4.9-0.4,6.1-1.3c1.2-1,1.8-2.2,1.8-3.7c0-1.3-0.4-2.3-1.3-3.1c-0.8-0.7-1.9-1.2-3.3-1.5l-12.8-2.4
		c-4.8-1-8.4-3-11-6c-2.6-3.1-3.9-7.1-3.9-12.1c0-4.6,1.1-8.5,3.3-11.8c2.3-3.4,5.4-5.9,9.3-7.7c4-1.9,8.5-2.8,13.7-2.8
		c3.4,0,6.6,0.3,9.4,0.9c2.8,0.5,5.6,1.5,8.3,3.1c1.7,0.8,2.9,1.9,3.6,3.5c0.7,1.5,1,3.1,0.8,4.8c-0.2,1.6-0.7,3.1-1.5,4.5
		c-0.8,1.3-1.8,2.3-3.2,2.8c-1.4,0.4-3,0.3-4.8-0.4c-2.5-1.2-4.8-2-6.8-2.5c-1.9-0.5-3.7-0.8-5.4-0.8c-3.1,0-5.4,0.5-6.7,1.5
		c-1.3,1-2,2.2-2,3.7c0,1.2,0.3,2.1,1,2.9c0.7,0.7,1.8,1.2,3.2,1.5l12.8,2.5c4.9,0.9,8.7,2.8,11.3,5.8c2.7,2.9,4,6.9,4,12
		c0,7.2-2.4,12.7-7.1,16.7C365.9,104.8,359.6,106.7,351.7,106.7z"/>
</mask>
<g class="st2">
	<rect x="-75" y="-73.3" class="st3" width="531.9" height="360.1"/>
	<path class="st4" d="M229.9-11L229.9-11c11.1-11.1,29.2-11.1,40.3,0l126.1,126.1c11.1,11.1,11.1,29.2,0,40.3l0,0
		c-11.1,11.1-29.2,11.1-40.3,0L229.9,29.4C218.8,18.2,218.8,0.2,229.9-11z"/>
	
		<linearGradient id="SVGID_1_" gradientUnits="userSpaceOnUse" x1="222.0729" y1="225.657" x2="222.0729" y2="87.929" gradientTransform="matrix(0.7085 0.7057 0.7057 -0.7085 -284.0005 22.9893)">
		<stop  offset="0" style="stop-color:#FEAE01"/>
		<stop  offset="0.725" style="stop-color:#B6250B"/>
	</linearGradient>
	<polygon class="st5" points="22.2,9.5 43,30.2 -54.2,127.8 -75,107 	"/>
	
		<linearGradient id="SVGID_2_" gradientUnits="userSpaceOnUse" x1="422.5639" y1="291.4146" x2="422.5639" y2="75.2326" gradientTransform="matrix(0.7085 0.7057 0.7057 -0.7085 -271.9657 -137.6628)">
		<stop  offset="0.59" style="stop-color:#B6250B"/>
		<stop  offset="1" style="stop-color:#FEAE01"/>
	</linearGradient>
	<polygon class="st6" points="222.7,-56.3 243.5,-35.6 90.9,117.6 70.1,96.9 	"/>
	
		<linearGradient id="SVGID_3_" gradientUnits="userSpaceOnUse" x1="452.4809" y1="284.0513" x2="452.4809" y2="-16.4256" gradientTransform="matrix(0.7085 0.7057 0.7057 -0.7085 -258.0492 -156.6288)">
		<stop  offset="0" style="stop-color:#FEAE01"/>
		<stop  offset="0.795" style="stop-color:#B6250B"/>
	</linearGradient>
	<path class="st7" d="M263-38.6L263-38.6c5.8,5.7,5.8,15,0,20.8L71.7,174.3c-5.7,5.8-15,5.8-20.8,0l0,0c-5.8-5.7-5.8-15,0-20.8
		L242.2-38.5C247.9-44.3,257.2-44.3,263-38.6z"/>
	
		<linearGradient id="SVGID_4_" gradientUnits="userSpaceOnUse" x1="462.8839" y1="270.5638" x2="462.8839" y2="-5.3212" gradientTransform="matrix(0.7085 0.7057 0.7057 -0.7085 -245.4989 -160.0387)">
		<stop  offset="0" style="stop-color:#FEAE01"/>
		<stop  offset="0.795" style="stop-color:#B6250B"/>
	</linearGradient>
	<path class="st8" d="M273.4-25.1L273.4-25.1c5.8,5.7,5.8,15,0,20.8L99.5,170.3c-5.7,5.8-15,5.8-20.8,0l0,0c-5.8-5.7-5.8-15,0-20.8
		L252.6-25C258.3-30.8,267.6-30.8,273.4-25.1z"/>
	
		<linearGradient id="SVGID_5_" gradientUnits="userSpaceOnUse" x1="52.3846" y1="142.8329" x2="52.3846" y2="-30.2281" gradientTransform="matrix(0.7071 -0.7071 -0.7071 -0.7071 341.4178 107.6967)">
		<stop  offset="0" style="stop-color:#FEAE01"/>
		<stop  offset="1" style="stop-color:#B6250B"/>
	</linearGradient>
	<path class="st9" d="M277.5-30.3L277.5-30.3c7.6-7.6,20-7.6,27.6,0l94.8,94.8c7.6,7.6,7.6,20,0,27.6l0,0c-7.6,7.6-20,7.6-27.6,0
		L277.5-2.7C269.8-10.3,269.8-22.7,277.5-30.3z"/>
	
		<linearGradient id="SVGID_6_" gradientUnits="userSpaceOnUse" x1="78.3655" y1="171.9629" x2="78.3655" y2="4.5659" gradientTransform="matrix(0.7071 -0.7071 -0.7071 -0.7071 369.6255 117.536)">
		<stop  offset="0" style="stop-color:#FEAE01"/>
		<stop  offset="0.32" style="stop-color:#D5060B"/>
	</linearGradient>
	<path class="st10" d="M303.4-59.5L303.4-59.5c7.6-7.6,20-7.6,27.6,0l90.7,90.7c7.6,7.6,7.6,20,0,27.6l0,0c-7.6,7.6-20,7.6-27.6,0
		l-90.7-90.7C295.8-39.5,295.8-51.8,303.4-59.5z"/>
	<path class="st4" d="M254.5,84.4L254.5,84.4c11.1-11.1,29.2-11.1,40.3,0l141.9,141.9c11.1,11.1,11.1,29.2,0,40.3l0,0
		c-11.1,11.1-29.2,11.1-40.3,0L254.5,124.8C243.3,113.6,243.3,95.6,254.5,84.4z"/>
</g>
<defs>
	<filter id="Adobe_OpacityMaskFilter_1_" filterUnits="userSpaceOnUse" x="3.1" y="33.8" width="45.9" height="45.9">
		<feColorMatrix  type="matrix" values="1 0 0 0 0  0 1 0 0 0  0 0 1 0 0  0 0 0 1 0"/>
	</filter>
</defs>
<mask maskUnits="userSpaceOnUse" x="3.1" y="33.8" width="45.9" height="45.9" id="path-10-outside-1_18_1841_1_">
	<rect x="2.8" y="3.7" class="st11" width="378" height="106"/>
	<path d="M46.2,56.8C46.2,68,37.2,77,26,77C14.9,77,5.8,68,5.8,56.8c0-11.2,9-20.2,20.2-20.2C37.2,36.6,46.2,45.6,46.2,56.8z"/>
	<path d="M74.1,106.5c-3.1,0.2-5.4-0.7-7.1-2.7c-1.6-2-2.4-4.6-2.4-7.7c0-2.4,0.6-4.5,1.7-6.2c1.1-1.8,2.9-2.7,5.2-2.9l3.2-0.3
		c2.8-0.2,4.8-0.9,6.1-2.3c1.3-1.4,2-3.7,2-6.9V22.9c0-4.1,0.9-7.1,2.8-9.2c1.8-2.1,4.4-3.2,7.8-3.2c3.4,0,6,1.1,7.8,3.2
		c1.8,2,2.8,5.1,2.8,9.2v54.2c0,6.1-1,11.3-2.9,15.5c-1.9,4.2-4.8,7.4-8.6,9.7c-3.8,2.2-8.5,3.5-14.1,3.9L74.1,106.5z"/>
	<path d="M125.4,79c-2.3,0-4.2-0.9-5.7-2.7c-1.5-1.8-2.3-4-2.3-6.6c0-2.7,0.8-4.8,2.3-6.5c1.5-1.8,3.4-2.7,5.7-2.7h22.8
		c2.3,0,4.2,0.9,5.7,2.7c1.5,1.7,2.3,3.9,2.3,6.5c0,2.7-0.8,4.9-2.3,6.6c-1.5,1.8-3.4,2.7-5.7,2.7H125.4z"/>
	<path d="M195.1,106.6c-2.8,0-5.1-0.8-6.9-2.3c-1.8-1.6-3.1-4-4.1-7.3l-22.4-72.1c-1.2-4-1-7.3,0.6-10.1c1.7-2.8,4.6-4.2,8.8-4.2
		c2.8,0,5.1,0.8,6.7,2.4c1.6,1.5,2.9,3.9,3.8,7.2l17.1,59.4h-5.4l18.4-59.4c1.1-3.3,2.4-5.7,4-7.2c1.6-1.6,3.7-2.4,6.2-2.4
		c2.5,0,4.6,0.8,6.1,2.4c1.5,1.5,2.8,3.9,3.8,7.3L249,79.5h-4.6L262,20.2c0.9-3.3,2.1-5.7,3.7-7.2c1.6-1.6,3.8-2.4,6.7-2.4
		c3.5,0,6.1,1.4,7.7,4.2c1.7,2.7,1.9,6.1,0.6,10.1l-22.6,72.2c-1,3.2-2.4,5.6-4.1,7.2c-1.7,1.5-3.9,2.3-6.8,2.3
		c-2.9,0-5.2-0.8-7-2.3c-1.7-1.6-3-4-4-7.3l-16.2-52.6h2.9l-16.5,52.7c-1.1,3.2-2.5,5.6-4.1,7.2C200.3,105.8,198,106.6,195.1,106.6z
		"/>
	<path d="M307,106.6c-3.2,0-5.7-1.1-7.5-3.3c-1.8-2.2-2.6-5.4-2.6-9.6v-42c0-4.2,0.9-7.3,2.6-9.6c1.8-2.2,4.3-3.3,7.5-3.3
		c3.3,0,5.8,1.1,7.6,3.3c1.8,2.2,2.8,5.4,2.8,9.6v42c0,4.2-0.9,7.3-2.6,9.6C312.9,105.5,310.4,106.6,307,106.6z M307,29.5
		c-3.6,0-6.4-1-8.4-2.9c-1.9-1.9-2.9-4.8-2.9-8.5c0-3.6,1-6.4,2.9-8.4c2-1.9,4.8-2.9,8.4-2.9c3.8,0,6.6,1,8.5,2.9
		c1.9,1.9,2.9,4.7,2.9,8.4c0,3.7-1,6.6-2.9,8.5C313.6,28.5,310.7,29.5,307,29.5z"/>
	<path d="M351.7,106.9c-3.4,0-6.8-0.3-10.3-0.9c-3.4-0.5-6.6-1.5-9.4-3.1c-1.9-0.9-3.3-2.1-4.1-3.6c-0.8-1.5-1.1-3.1-1.1-4.8
		c0.1-1.7,0.5-3.2,1.3-4.5c0.8-1.4,1.9-2.4,3.2-2.9c1.4-0.6,2.9-0.6,4.6,0.1c3.2,1.3,6.1,2.3,8.6,2.9c2.6,0.5,5.1,0.8,7.5,0.8
		c2.8,0,4.9-0.4,6.1-1.3c1.2-1,1.8-2.2,1.8-3.7c0-1.3-0.4-2.3-1.3-3.1c-0.8-0.7-1.9-1.2-3.3-1.5L342.4,79c-4.8-1-8.4-3-11-6
		c-2.6-3.1-3.9-7.1-3.9-12.1c0-4.6,1.1-8.5,3.3-11.8c2.3-3.4,5.4-5.9,9.3-7.7c4-1.9,8.5-2.8,13.7-2.8c3.4,0,6.6,0.3,9.4,0.9
		c2.8,0.5,5.6,1.5,8.3,3.1c1.7,0.8,2.9,1.9,3.6,3.5c0.7,1.5,1,3.1,0.8,4.8c-0.2,1.6-0.7,3.1-1.5,4.5c-0.8,1.3-1.8,2.3-3.2,2.8
		c-1.4,0.4-3,0.3-4.8-0.4c-2.5-1.2-4.8-2-6.8-2.5c-1.9-0.5-3.7-0.8-5.4-0.8c-3.1,0-5.4,0.5-6.7,1.5c-1.3,1-2,2.2-2,3.7
		c0,1.2,0.3,2.1,1,2.9c0.7,0.7,1.8,1.2,3.2,1.5l12.8,2.5c4.9,0.9,8.7,2.8,11.3,5.8c2.7,2.9,4,6.9,4,11.9c0,7.2-2.4,12.7-7.1,16.7
		C365.9,104.9,359.6,106.9,351.7,106.9z"/>
</mask>
<path class="st12" d="M46.2,56.8C46.2,68,37.2,77,26,77C14.9,77,5.8,68,5.8,56.8c0-11.2,9-20.2,20.2-20.2
	C37.2,36.6,46.2,45.6,46.2,56.8z"/>
<defs>
	<filter id="Adobe_OpacityMaskFilter_2_" filterUnits="userSpaceOnUse" x="61.8" y="7.8" width="44.8" height="101.4">
		<feColorMatrix  type="matrix" values="1 0 0 0 0  0 1 0 0 0  0 0 1 0 0  0 0 0 1 0"/>
	</filter>
</defs>
<mask maskUnits="userSpaceOnUse" x="61.8" y="7.8" width="44.8" height="101.4" id="path-10-outside-1_18_1841_2_">
	<rect x="2.8" y="3.7" class="st13" width="378" height="106"/>
	<path d="M46.2,56.8C46.2,68,37.2,77,26,77C14.9,77,5.8,68,5.8,56.8c0-11.2,9-20.2,20.2-20.2C37.2,36.6,46.2,45.6,46.2,56.8z"/>
	<path d="M74.1,106.5c-3.1,0.2-5.4-0.7-7.1-2.7c-1.6-2-2.4-4.6-2.4-7.7c0-2.4,0.6-4.5,1.7-6.2c1.1-1.8,2.9-2.7,5.2-2.9l3.2-0.3
		c2.8-0.2,4.8-0.9,6.1-2.3c1.3-1.4,2-3.7,2-6.9V22.9c0-4.1,0.9-7.1,2.8-9.2c1.8-2.1,4.4-3.2,7.8-3.2c3.4,0,6,1.1,7.8,3.2
		c1.8,2,2.8,5.1,2.8,9.2v54.2c0,6.1-1,11.3-2.9,15.5c-1.9,4.2-4.8,7.4-8.6,9.7c-3.8,2.2-8.5,3.5-14.1,3.9L74.1,106.5z"/>
	<path d="M125.4,79c-2.3,0-4.2-0.9-5.7-2.7c-1.5-1.8-2.3-4-2.3-6.6c0-2.7,0.8-4.8,2.3-6.5c1.5-1.8,3.4-2.7,5.7-2.7h22.8
		c2.3,0,4.2,0.9,5.7,2.7c1.5,1.7,2.3,3.9,2.3,6.5c0,2.7-0.8,4.9-2.3,6.6c-1.5,1.8-3.4,2.7-5.7,2.7H125.4z"/>
	<path d="M195.1,106.6c-2.8,0-5.1-0.8-6.9-2.3c-1.8-1.6-3.1-4-4.1-7.3l-22.4-72.1c-1.2-4-1-7.3,0.6-10.1c1.7-2.8,4.6-4.2,8.8-4.2
		c2.8,0,5.1,0.8,6.7,2.4c1.6,1.5,2.9,3.9,3.8,7.2l17.1,59.4h-5.4l18.4-59.4c1.1-3.3,2.4-5.7,4-7.2c1.6-1.6,3.7-2.4,6.2-2.4
		c2.5,0,4.6,0.8,6.1,2.4c1.5,1.5,2.8,3.9,3.8,7.3L249,79.5h-4.6L262,20.2c0.9-3.3,2.1-5.7,3.7-7.2c1.6-1.6,3.8-2.4,6.7-2.4
		c3.5,0,6.1,1.4,7.7,4.2c1.7,2.7,1.9,6.1,0.6,10.1l-22.6,72.2c-1,3.2-2.4,5.6-4.1,7.2c-1.7,1.5-3.9,2.3-6.8,2.3
		c-2.9,0-5.2-0.8-7-2.3c-1.7-1.6-3-4-4-7.3l-16.2-52.6h2.9l-16.5,52.7c-1.1,3.2-2.5,5.6-4.1,7.2C200.3,105.8,198,106.6,195.1,106.6z
		"/>
	<path d="M307,106.6c-3.2,0-5.7-1.1-7.5-3.3c-1.8-2.2-2.6-5.4-2.6-9.6v-42c0-4.2,0.9-7.3,2.6-9.6c1.8-2.2,4.3-3.3,7.5-3.3
		c3.3,0,5.8,1.1,7.6,3.3c1.8,2.2,2.8,5.4,2.8,9.6v42c0,4.2-0.9,7.3-2.6,9.6C312.9,105.5,310.4,106.6,307,106.6z M307,29.5
		c-3.6,0-6.4-1-8.4-2.9c-1.9-1.9-2.9-4.8-2.9-8.5c0-3.6,1-6.4,2.9-8.4c2-1.9,4.8-2.9,8.4-2.9c3.8,0,6.6,1,8.5,2.9
		c1.9,1.9,2.9,4.7,2.9,8.4c0,3.7-1,6.6-2.9,8.5C313.6,28.5,310.7,29.5,307,29.5z"/>
	<path d="M351.7,106.9c-3.4,0-6.8-0.3-10.3-0.9c-3.4-0.5-6.6-1.5-9.4-3.1c-1.9-0.9-3.3-2.1-4.1-3.6c-0.8-1.5-1.1-3.1-1.1-4.8
		c0.1-1.7,0.5-3.2,1.3-4.5c0.8-1.4,1.9-2.4,3.2-2.9c1.4-0.6,2.9-0.6,4.6,0.1c3.2,1.3,6.1,2.3,8.6,2.9c2.6,0.5,5.1,0.8,7.5,0.8
		c2.8,0,4.9-0.4,6.1-1.3c1.2-1,1.8-2.2,1.8-3.7c0-1.3-0.4-2.3-1.3-3.1c-0.8-0.7-1.9-1.2-3.3-1.5L342.4,79c-4.8-1-8.4-3-11-6
		c-2.6-3.1-3.9-7.1-3.9-12.1c0-4.6,1.1-8.5,3.3-11.8c2.3-3.4,5.4-5.9,9.3-7.7c4-1.9,8.5-2.8,13.7-2.8c3.4,0,6.6,0.3,9.4,0.9
		c2.8,0.5,5.6,1.5,8.3,3.1c1.7,0.8,2.9,1.9,3.6,3.5c0.7,1.5,1,3.1,0.8,4.8c-0.2,1.6-0.7,3.1-1.5,4.5c-0.8,1.3-1.8,2.3-3.2,2.8
		c-1.4,0.4-3,0.3-4.8-0.4c-2.5-1.2-4.8-2-6.8-2.5c-1.9-0.5-3.7-0.8-5.4-0.8c-3.1,0-5.4,0.5-6.7,1.5c-1.3,1-2,2.2-2,3.7
		c0,1.2,0.3,2.1,1,2.9c0.7,0.7,1.8,1.2,3.2,1.5l12.8,2.5c4.9,0.9,8.7,2.8,11.3,5.8c2.7,2.9,4,6.9,4,11.9c0,7.2-2.4,12.7-7.1,16.7
		C365.9,104.9,359.6,106.9,351.7,106.9z"/>
</mask>
<path class="st14" d="M74.1,106.5c-3.1,0.2-5.4-0.7-7.1-2.7c-1.6-2-2.4-4.6-2.4-7.7c0-2.4,0.6-4.5,1.7-6.2c1.1-1.8,2.9-2.7,5.2-2.9
	l3.2-0.3c2.8-0.2,4.8-0.9,6.1-2.3c1.3-1.4,2-3.7,2-6.9V22.9c0-4.1,0.9-7.1,2.8-9.2c1.8-2.1,4.4-3.2,7.8-3.2c3.4,0,6,1.1,7.8,3.2
	c1.8,2,2.8,5.1,2.8,9.2v54.2c0,6.1-1,11.3-2.9,15.5c-1.9,4.2-4.8,7.4-8.6,9.7c-3.8,2.2-8.5,3.5-14.1,3.9L74.1,106.5z"/>
<defs>
	<filter id="Adobe_OpacityMaskFilter_3_" filterUnits="userSpaceOnUse" x="114.6" y="57.8" width="44.4" height="24">
		<feColorMatrix  type="matrix" values="1 0 0 0 0  0 1 0 0 0  0 0 1 0 0  0 0 0 1 0"/>
	</filter>
</defs>
<mask maskUnits="userSpaceOnUse" x="114.6" y="57.8" width="44.4" height="24" id="path-10-outside-1_18_1841_3_">
	<rect x="2.8" y="3.7" class="st15" width="378" height="106"/>
	<path d="M46.2,56.8C46.2,68,37.2,77,26,77C14.9,77,5.8,68,5.8,56.8c0-11.2,9-20.2,20.2-20.2C37.2,36.6,46.2,45.6,46.2,56.8z"/>
	<path d="M74.1,106.5c-3.1,0.2-5.4-0.7-7.1-2.7c-1.6-2-2.4-4.6-2.4-7.7c0-2.4,0.6-4.5,1.7-6.2c1.1-1.8,2.9-2.7,5.2-2.9l3.2-0.3
		c2.8-0.2,4.8-0.9,6.1-2.3c1.3-1.4,2-3.7,2-6.9V22.9c0-4.1,0.9-7.1,2.8-9.2c1.8-2.1,4.4-3.2,7.8-3.2c3.4,0,6,1.1,7.8,3.2
		c1.8,2,2.8,5.1,2.8,9.2v54.2c0,6.1-1,11.3-2.9,15.5c-1.9,4.2-4.8,7.4-8.6,9.7c-3.8,2.2-8.5,3.5-14.1,3.9L74.1,106.5z"/>
	<path d="M125.4,79c-2.3,0-4.2-0.9-5.7-2.7c-1.5-1.8-2.3-4-2.3-6.6c0-2.7,0.8-4.8,2.3-6.5c1.5-1.8,3.4-2.7,5.7-2.7h22.8
		c2.3,0,4.2,0.9,5.7,2.7c1.5,1.7,2.3,3.9,2.3,6.5c0,2.7-0.8,4.9-2.3,6.6c-1.5,1.8-3.4,2.7-5.7,2.7H125.4z"/>
	<path d="M195.1,106.6c-2.8,0-5.1-0.8-6.9-2.3c-1.8-1.6-3.1-4-4.1-7.3l-22.4-72.1c-1.2-4-1-7.3,0.6-10.1c1.7-2.8,4.6-4.2,8.8-4.2
		c2.8,0,5.1,0.8,6.7,2.4c1.6,1.5,2.9,3.9,3.8,7.2l17.1,59.4h-5.4l18.4-59.4c1.1-3.3,2.4-5.7,4-7.2c1.6-1.6,3.7-2.4,6.2-2.4
		c2.5,0,4.6,0.8,6.1,2.4c1.5,1.5,2.8,3.9,3.8,7.3L249,79.5h-4.6L262,20.2c0.9-3.3,2.1-5.7,3.7-7.2c1.6-1.6,3.8-2.4,6.7-2.4
		c3.5,0,6.1,1.4,7.7,4.2c1.7,2.7,1.9,6.1,0.6,10.1l-22.6,72.2c-1,3.2-2.4,5.6-4.1,7.2c-1.7,1.5-3.9,2.3-6.8,2.3
		c-2.9,0-5.2-0.8-7-2.3c-1.7-1.6-3-4-4-7.3l-16.2-52.6h2.9l-16.5,52.7c-1.1,3.2-2.5,5.6-4.1,7.2C200.3,105.8,198,106.6,195.1,106.6z
		"/>
	<path d="M307,106.6c-3.2,0-5.7-1.1-7.5-3.3c-1.8-2.2-2.6-5.4-2.6-9.6v-42c0-4.2,0.9-7.3,2.6-9.6c1.8-2.2,4.3-3.3,7.5-3.3
		c3.3,0,5.8,1.1,7.6,3.3c1.8,2.2,2.8,5.4,2.8,9.6v42c0,4.2-0.9,7.3-2.6,9.6C312.9,105.5,310.4,106.6,307,106.6z M307,29.5
		c-3.6,0-6.4-1-8.4-2.9c-1.9-1.9-2.9-4.8-2.9-8.5c0-3.6,1-6.4,2.9-8.4c2-1.9,4.8-2.9,8.4-2.9c3.8,0,6.6,1,8.5,2.9
		c1.9,1.9,2.9,4.7,2.9,8.4c0,3.7-1,6.6-2.9,8.5C313.6,28.5,310.7,29.5,307,29.5z"/>
	<path d="M351.7,106.9c-3.4,0-6.8-0.3-10.3-0.9c-3.4-0.5-6.6-1.5-9.4-3.1c-1.9-0.9-3.3-2.1-4.1-3.6c-0.8-1.5-1.1-3.1-1.1-4.8
		c0.1-1.7,0.5-3.2,1.3-4.5c0.8-1.4,1.9-2.4,3.2-2.9c1.4-0.6,2.9-0.6,4.6,0.1c3.2,1.3,6.1,2.3,8.6,2.9c2.6,0.5,5.1,0.8,7.5,0.8
		c2.8,0,4.9-0.4,6.1-1.3c1.2-1,1.8-2.2,1.8-3.7c0-1.3-0.4-2.3-1.3-3.1c-0.8-0.7-1.9-1.2-3.3-1.5L342.4,79c-4.8-1-8.4-3-11-6
		c-2.6-3.1-3.9-7.1-3.9-12.1c0-4.6,1.1-8.5,3.3-11.8c2.3-3.4,5.4-5.9,9.3-7.7c4-1.9,8.5-2.8,13.7-2.8c3.4,0,6.6,0.3,9.4,0.9
		c2.8,0.5,5.6,1.5,8.3,3.1c1.7,0.8,2.9,1.9,3.6,3.5c0.7,1.5,1,3.1,0.8,4.8c-0.2,1.6-0.7,3.1-1.5,4.5c-0.8,1.3-1.8,2.3-3.2,2.8
		c-1.4,0.4-3,0.3-4.8-0.4c-2.5-1.2-4.8-2-6.8-2.5c-1.9-0.5-3.7-0.8-5.4-0.8c-3.1,0-5.4,0.5-6.7,1.5c-1.3,1-2,2.2-2,3.7
		c0,1.2,0.3,2.1,1,2.9c0.7,0.7,1.8,1.2,3.2,1.5l12.8,2.5c4.9,0.9,8.7,2.8,11.3,5.8c2.7,2.9,4,6.9,4,11.9c0,7.2-2.4,12.7-7.1,16.7
		C365.9,104.9,359.6,106.9,351.7,106.9z"/>
</mask>
<path class="st16" d="M125.4,79c-2.3,0-4.2-0.9-5.7-2.7c-1.5-1.8-2.3-4-2.3-6.6c0-2.7,0.8-4.8,2.3-6.5c1.5-1.8,3.4-2.7,5.7-2.7h22.8
	c2.3,0,4.2,0.9,5.7,2.7c1.5,1.7,2.3,3.9,2.3,6.5c0,2.7-0.8,4.9-2.3,6.6c-1.5,1.8-3.4,2.7-5.7,2.7H125.4z"/>
<defs>
	<filter id="Adobe_OpacityMaskFilter_4_" filterUnits="userSpaceOnUse" x="158.1" y="7.8" width="126.1" height="101.5">
		<feColorMatrix  type="matrix" values="1 0 0 0 0  0 1 0 0 0  0 0 1 0 0  0 0 0 1 0"/>
	</filter>
</defs>
<mask maskUnits="userSpaceOnUse" x="158.1" y="7.8" width="126.1" height="101.5" id="path-10-outside-1_18_1841_4_">
	<rect x="2.8" y="3.7" class="st17" width="378" height="106"/>
	<path d="M46.2,56.8C46.2,68,37.2,77,26,77C14.9,77,5.8,68,5.8,56.8c0-11.2,9-20.2,20.2-20.2C37.2,36.6,46.2,45.6,46.2,56.8z"/>
	<path d="M74.1,106.5c-3.1,0.2-5.4-0.7-7.1-2.7c-1.6-2-2.4-4.6-2.4-7.7c0-2.4,0.6-4.5,1.7-6.2c1.1-1.8,2.9-2.7,5.2-2.9l3.2-0.3
		c2.8-0.2,4.8-0.9,6.1-2.3c1.3-1.4,2-3.7,2-6.9V22.9c0-4.1,0.9-7.1,2.8-9.2c1.8-2.1,4.4-3.2,7.8-3.2c3.4,0,6,1.1,7.8,3.2
		c1.8,2,2.8,5.1,2.8,9.2v54.2c0,6.1-1,11.3-2.9,15.5c-1.9,4.2-4.8,7.4-8.6,9.7c-3.8,2.2-8.5,3.5-14.1,3.9L74.1,106.5z"/>
	<path d="M125.4,79c-2.3,0-4.2-0.9-5.7-2.7c-1.5-1.8-2.3-4-2.3-6.6c0-2.7,0.8-4.8,2.3-6.5c1.5-1.8,3.4-2.7,5.7-2.7h22.8
		c2.3,0,4.2,0.9,5.7,2.7c1.5,1.7,2.3,3.9,2.3,6.5c0,2.7-0.8,4.9-2.3,6.6c-1.5,1.8-3.4,2.7-5.7,2.7H125.4z"/>
	<path d="M195.1,106.6c-2.8,0-5.1-0.8-6.9-2.3c-1.8-1.6-3.1-4-4.1-7.3l-22.4-72.1c-1.2-4-1-7.3,0.6-10.1c1.7-2.8,4.6-4.2,8.8-4.2
		c2.8,0,5.1,0.8,6.7,2.4c1.6,1.5,2.9,3.9,3.8,7.2l17.1,59.4h-5.4l18.4-59.4c1.1-3.3,2.4-5.7,4-7.2c1.6-1.6,3.7-2.4,6.2-2.4
		c2.5,0,4.6,0.8,6.1,2.4c1.5,1.5,2.8,3.9,3.8,7.3L249,79.5h-4.6L262,20.2c0.9-3.3,2.1-5.7,3.7-7.2c1.6-1.6,3.8-2.4,6.7-2.4
		c3.5,0,6.1,1.4,7.7,4.2c1.7,2.7,1.9,6.1,0.6,10.1l-22.6,72.2c-1,3.2-2.4,5.6-4.1,7.2c-1.7,1.5-3.9,2.3-6.8,2.3
		c-2.9,0-5.2-0.8-7-2.3c-1.7-1.6-3-4-4-7.3l-16.2-52.6h2.9l-16.5,52.7c-1.1,3.2-2.5,5.6-4.1,7.2C200.3,105.8,198,106.6,195.1,106.6z
		"/>
	<path d="M307,106.6c-3.2,0-5.7-1.1-7.5-3.3c-1.8-2.2-2.6-5.4-2.6-9.6v-42c0-4.2,0.9-7.3,2.6-9.6c1.8-2.2,4.3-3.3,7.5-3.3
		c3.3,0,5.8,1.1,7.6,3.3c1.8,2.2,2.8,5.4,2.8,9.6v42c0,4.2-0.9,7.3-2.6,9.6C312.9,105.5,310.4,106.6,307,106.6z M307,29.5
		c-3.6,0-6.4-1-8.4-2.9c-1.9-1.9-2.9-4.8-2.9-8.5c0-3.6,1-6.4,2.9-8.4c2-1.9,4.8-2.9,8.4-2.9c3.8,0,6.6,1,8.5,2.9
		c1.9,1.9,2.9,4.7,2.9,8.4c0,3.7-1,6.6-2.9,8.5C313.6,28.5,310.7,29.5,307,29.5z"/>
	<path d="M351.7,106.9c-3.4,0-6.8-0.3-10.3-0.9c-3.4-0.5-6.6-1.5-9.4-3.1c-1.9-0.9-3.3-2.1-4.1-3.6c-0.8-1.5-1.1-3.1-1.1-4.8
		c0.1-1.7,0.5-3.2,1.3-4.5c0.8-1.4,1.9-2.4,3.2-2.9c1.4-0.6,2.9-0.6,4.6,0.1c3.2,1.3,6.1,2.3,8.6,2.9c2.6,0.5,5.1,0.8,7.5,0.8
		c2.8,0,4.9-0.4,6.1-1.3c1.2-1,1.8-2.2,1.8-3.7c0-1.3-0.4-2.3-1.3-3.1c-0.8-0.7-1.9-1.2-3.3-1.5L342.4,79c-4.8-1-8.4-3-11-6
		c-2.6-3.1-3.9-7.1-3.9-12.1c0-4.6,1.1-8.5,3.3-11.8c2.3-3.4,5.4-5.9,9.3-7.7c4-1.9,8.5-2.8,13.7-2.8c3.4,0,6.6,0.3,9.4,0.9
		c2.8,0.5,5.6,1.5,8.3,3.1c1.7,0.8,2.9,1.9,3.6,3.5c0.7,1.5,1,3.1,0.8,4.8c-0.2,1.6-0.7,3.1-1.5,4.5c-0.8,1.3-1.8,2.3-3.2,2.8
		c-1.4,0.4-3,0.3-4.8-0.4c-2.5-1.2-4.8-2-6.8-2.5c-1.9-0.5-3.7-0.8-5.4-0.8c-3.1,0-5.4,0.5-6.7,1.5c-1.3,1-2,2.2-2,3.7
		c0,1.2,0.3,2.1,1,2.9c0.7,0.7,1.8,1.2,3.2,1.5l12.8,2.5c4.9,0.9,8.7,2.8,11.3,5.8c2.7,2.9,4,6.9,4,11.9c0,7.2-2.4,12.7-7.1,16.7
		C365.9,104.9,359.6,106.9,351.7,106.9z"/>
</mask>
<path class="st18" d="M195.1,106.6c-2.8,0-5.1-0.8-6.9-2.3c-1.8-1.6-3.1-4-4.1-7.3l-22.4-72.1c-1.2-4-1-7.3,0.6-10.1
	c1.7-2.8,4.6-4.2,8.8-4.2c2.8,0,5.1,0.8,6.7,2.4c1.6,1.5,2.9,3.9,3.8,7.2l17.1,59.4h-5.4l18.4-59.4c1.1-3.3,2.4-5.7,4-7.2
	c1.6-1.6,3.7-2.4,6.2-2.4c2.5,0,4.6,0.8,6.1,2.4c1.5,1.5,2.8,3.9,3.8,7.3L249,79.5h-4.6L262,20.2c0.9-3.3,2.1-5.7,3.7-7.2
	c1.6-1.6,3.8-2.4,6.7-2.4c3.5,0,6.1,1.4,7.7,4.2c1.7,2.7,1.9,6.1,0.6,10.1l-22.6,72.2c-1,3.2-2.4,5.6-4.1,7.2
	c-1.7,1.5-3.9,2.3-6.8,2.3c-2.9,0-5.2-0.8-7-2.3c-1.7-1.6-3-4-4-7.3l-16.2-52.6h2.9l-16.5,52.7c-1.1,3.2-2.5,5.6-4.1,7.2
	C200.3,105.8,198,106.6,195.1,106.6z"/>
<defs>
	<filter id="Adobe_OpacityMaskFilter_5_" filterUnits="userSpaceOnUse" x="293" y="4" width="28.2" height="105.4">
		<feColorMatrix  type="matrix" values="1 0 0 0 0  0 1 0 0 0  0 0 1 0 0  0 0 0 1 0"/>
	</filter>
</defs>
<mask maskUnits="userSpaceOnUse" x="293" y="4" width="28.2" height="105.4" id="path-10-outside-1_18_1841_5_">
	<rect x="2.8" y="3.7" class="st19" width="378" height="106"/>
	<path d="M46.2,56.8C46.2,68,37.2,77,26,77C14.9,77,5.8,68,5.8,56.8c0-11.2,9-20.2,20.2-20.2C37.2,36.6,46.2,45.6,46.2,56.8z"/>
	<path d="M74.1,106.5c-3.1,0.2-5.4-0.7-7.1-2.7c-1.6-2-2.4-4.6-2.4-7.7c0-2.4,0.6-4.5,1.7-6.2c1.1-1.8,2.9-2.7,5.2-2.9l3.2-0.3
		c2.8-0.2,4.8-0.9,6.1-2.3c1.3-1.4,2-3.7,2-6.9V22.9c0-4.1,0.9-7.1,2.8-9.2c1.8-2.1,4.4-3.2,7.8-3.2c3.4,0,6,1.1,7.8,3.2
		c1.8,2,2.8,5.1,2.8,9.2v54.2c0,6.1-1,11.3-2.9,15.5c-1.9,4.2-4.8,7.4-8.6,9.7c-3.8,2.2-8.5,3.5-14.1,3.9L74.1,106.5z"/>
	<path d="M125.4,79c-2.3,0-4.2-0.9-5.7-2.7c-1.5-1.8-2.3-4-2.3-6.6c0-2.7,0.8-4.8,2.3-6.5c1.5-1.8,3.4-2.7,5.7-2.7h22.8
		c2.3,0,4.2,0.9,5.7,2.7c1.5,1.7,2.3,3.9,2.3,6.5c0,2.7-0.8,4.9-2.3,6.6c-1.5,1.8-3.4,2.7-5.7,2.7H125.4z"/>
	<path d="M195.1,106.6c-2.8,0-5.1-0.8-6.9-2.3c-1.8-1.6-3.1-4-4.1-7.3l-22.4-72.1c-1.2-4-1-7.3,0.6-10.1c1.7-2.8,4.6-4.2,8.8-4.2
		c2.8,0,5.1,0.8,6.7,2.4c1.6,1.5,2.9,3.9,3.8,7.2l17.1,59.4h-5.4l18.4-59.4c1.1-3.3,2.4-5.7,4-7.2c1.6-1.6,3.7-2.4,6.2-2.4
		c2.5,0,4.6,0.8,6.1,2.4c1.5,1.5,2.8,3.9,3.8,7.3L249,79.5h-4.6L262,20.2c0.9-3.3,2.1-5.7,3.7-7.2c1.6-1.6,3.8-2.4,6.7-2.4
		c3.5,0,6.1,1.4,7.7,4.2c1.7,2.7,1.9,6.1,0.6,10.1l-22.6,72.2c-1,3.2-2.4,5.6-4.1,7.2c-1.7,1.5-3.9,2.3-6.8,2.3
		c-2.9,0-5.2-0.8-7-2.3c-1.7-1.6-3-4-4-7.3l-16.2-52.6h2.9l-16.5,52.7c-1.1,3.2-2.5,5.6-4.1,7.2C200.3,105.8,198,106.6,195.1,106.6z
		"/>
	<path d="M307,106.6c-3.2,0-5.7-1.1-7.5-3.3c-1.8-2.2-2.6-5.4-2.6-9.6v-42c0-4.2,0.9-7.3,2.6-9.6c1.8-2.2,4.3-3.3,7.5-3.3
		c3.3,0,5.8,1.1,7.6,3.3c1.8,2.2,2.8,5.4,2.8,9.6v42c0,4.2-0.9,7.3-2.6,9.6C312.9,105.5,310.4,106.6,307,106.6z M307,29.5
		c-3.6,0-6.4-1-8.4-2.9c-1.9-1.9-2.9-4.8-2.9-8.5c0-3.6,1-6.4,2.9-8.4c2-1.9,4.8-2.9,8.4-2.9c3.8,0,6.6,1,8.5,2.9
		c1.9,1.9,2.9,4.7,2.9,8.4c0,3.7-1,6.6-2.9,8.5C313.6,28.5,310.7,29.5,307,29.5z"/>
	<path d="M351.7,106.9c-3.4,0-6.8-0.3-10.3-0.9c-3.4-0.5-6.6-1.5-9.4-3.1c-1.9-0.9-3.3-2.1-4.1-3.6c-0.8-1.5-1.1-3.1-1.1-4.8
		c0.1-1.7,0.5-3.2,1.3-4.5c0.8-1.4,1.9-2.4,3.2-2.9c1.4-0.6,2.9-0.6,4.6,0.1c3.2,1.3,6.1,2.3,8.6,2.9c2.6,0.5,5.1,0.8,7.5,0.8
		c2.8,0,4.9-0.4,6.1-1.3c1.2-1,1.8-2.2,1.8-3.7c0-1.3-0.4-2.3-1.3-3.1c-0.8-0.7-1.9-1.2-3.3-1.5L342.4,79c-4.8-1-8.4-3-11-6
		c-2.6-3.1-3.9-7.1-3.9-12.1c0-4.6,1.1-8.5,3.3-11.8c2.3-3.4,5.4-5.9,9.3-7.7c4-1.9,8.5-2.8,13.7-2.8c3.4,0,6.6,0.3,9.4,0.9
		c2.8,0.5,5.6,1.5,8.3,3.1c1.7,0.8,2.9,1.9,3.6,3.5c0.7,1.5,1,3.1,0.8,4.8c-0.2,1.6-0.7,3.1-1.5,4.5c-0.8,1.3-1.8,2.3-3.2,2.8
		c-1.4,0.4-3,0.3-4.8-0.4c-2.5-1.2-4.8-2-6.8-2.5c-1.9-0.5-3.7-0.8-5.4-0.8c-3.1,0-5.4,0.5-6.7,1.5c-1.3,1-2,2.2-2,3.7
		c0,1.2,0.3,2.1,1,2.9c0.7,0.7,1.8,1.2,3.2,1.5l12.8,2.5c4.9,0.9,8.7,2.8,11.3,5.8c2.7,2.9,4,6.9,4,11.9c0,7.2-2.4,12.7-7.1,16.7
		C365.9,104.9,359.6,106.9,351.7,106.9z"/>
</mask>
<path class="st20" d="M307,106.6c-3.2,0-5.7-1.1-7.5-3.3c-1.8-2.2-2.6-5.4-2.6-9.6v-42c0-4.2,0.9-7.3,2.6-9.6
	c1.8-2.2,4.3-3.3,7.5-3.3c3.3,0,5.8,1.1,7.6,3.3c1.8,2.2,2.8,5.4,2.8,9.6v42c0,4.2-0.9,7.3-2.6,9.6
	C312.9,105.5,310.4,106.6,307,106.6z M307,29.5c-3.6,0-6.4-1-8.4-2.9c-1.9-1.9-2.9-4.8-2.9-8.5c0-3.6,1-6.4,2.9-8.4
	c2-1.9,4.8-2.9,8.4-2.9c3.8,0,6.6,1,8.5,2.9c1.9,1.9,2.9,4.7,2.9,8.4c0,3.7-1,6.6-2.9,8.5C313.6,28.5,310.7,29.5,307,29.5z"/>
<defs>
	<filter id="Adobe_OpacityMaskFilter_6_" filterUnits="userSpaceOnUse" x="323.9" y="35.9" width="56.7" height="73.8">
		<feColorMatrix  type="matrix" values="1 0 0 0 0  0 1 0 0 0  0 0 1 0 0  0 0 0 1 0"/>
	</filter>
</defs>
<mask maskUnits="userSpaceOnUse" x="323.9" y="35.9" width="56.7" height="73.8" id="path-10-outside-1_18_1841_6_">
	<rect x="2.8" y="3.7" class="st21" width="378" height="106"/>
	<path d="M46.2,56.8C46.2,68,37.2,77,26,77C14.9,77,5.8,68,5.8,56.8c0-11.2,9-20.2,20.2-20.2C37.2,36.6,46.2,45.6,46.2,56.8z"/>
	<path d="M74.1,106.5c-3.1,0.2-5.4-0.7-7.1-2.7c-1.6-2-2.4-4.6-2.4-7.7c0-2.4,0.6-4.5,1.7-6.2c1.1-1.8,2.9-2.7,5.2-2.9l3.2-0.3
		c2.8-0.2,4.8-0.9,6.1-2.3c1.3-1.4,2-3.7,2-6.9V22.9c0-4.1,0.9-7.1,2.8-9.2c1.8-2.1,4.4-3.2,7.8-3.2c3.4,0,6,1.1,7.8,3.2
		c1.8,2,2.8,5.1,2.8,9.2v54.2c0,6.1-1,11.3-2.9,15.5c-1.9,4.2-4.8,7.4-8.6,9.7c-3.8,2.2-8.5,3.5-14.1,3.9L74.1,106.5z"/>
	<path d="M125.4,79c-2.3,0-4.2-0.9-5.7-2.7c-1.5-1.8-2.3-4-2.3-6.6c0-2.7,0.8-4.8,2.3-6.5c1.5-1.8,3.4-2.7,5.7-2.7h22.8
		c2.3,0,4.2,0.9,5.7,2.7c1.5,1.7,2.3,3.9,2.3,6.5c0,2.7-0.8,4.9-2.3,6.6c-1.5,1.8-3.4,2.7-5.7,2.7H125.4z"/>
	<path d="M195.1,106.6c-2.8,0-5.1-0.8-6.9-2.3c-1.8-1.6-3.1-4-4.1-7.3l-22.4-72.1c-1.2-4-1-7.3,0.6-10.1c1.7-2.8,4.6-4.2,8.8-4.2
		c2.8,0,5.1,0.8,6.7,2.4c1.6,1.5,2.9,3.9,3.8,7.2l17.1,59.4h-5.4l18.4-59.4c1.1-3.3,2.4-5.7,4-7.2c1.6-1.6,3.7-2.4,6.2-2.4
		c2.5,0,4.6,0.8,6.1,2.4c1.5,1.5,2.8,3.9,3.8,7.3L249,79.5h-4.6L262,20.2c0.9-3.3,2.1-5.7,3.7-7.2c1.6-1.6,3.8-2.4,6.7-2.4
		c3.5,0,6.1,1.4,7.7,4.2c1.7,2.7,1.9,6.1,0.6,10.1l-22.6,72.2c-1,3.2-2.4,5.6-4.1,7.2c-1.7,1.5-3.9,2.3-6.8,2.3
		c-2.9,0-5.2-0.8-7-2.3c-1.7-1.6-3-4-4-7.3l-16.2-52.6h2.9l-16.5,52.7c-1.1,3.2-2.5,5.6-4.1,7.2C200.3,105.8,198,106.6,195.1,106.6z
		"/>
	<path d="M307,106.6c-3.2,0-5.7-1.1-7.5-3.3c-1.8-2.2-2.6-5.4-2.6-9.6v-42c0-4.2,0.9-7.3,2.6-9.6c1.8-2.2,4.3-3.3,7.5-3.3
		c3.3,0,5.8,1.1,7.6,3.3c1.8,2.2,2.8,5.4,2.8,9.6v42c0,4.2-0.9,7.3-2.6,9.6C312.9,105.5,310.4,106.6,307,106.6z M307,29.5
		c-3.6,0-6.4-1-8.4-2.9c-1.9-1.9-2.9-4.8-2.9-8.5c0-3.6,1-6.4,2.9-8.4c2-1.9,4.8-2.9,8.4-2.9c3.8,0,6.6,1,8.5,2.9
		c1.9,1.9,2.9,4.7,2.9,8.4c0,3.7-1,6.6-2.9,8.5C313.6,28.5,310.7,29.5,307,29.5z"/>
	<path d="M351.7,106.9c-3.4,0-6.8-0.3-10.3-0.9c-3.4-0.5-6.6-1.5-9.4-3.1c-1.9-0.9-3.3-2.1-4.1-3.6c-0.8-1.5-1.1-3.1-1.1-4.8
		c0.1-1.7,0.5-3.2,1.3-4.5c0.8-1.4,1.9-2.4,3.2-2.9c1.4-0.6,2.9-0.6,4.6,0.1c3.2,1.3,6.1,2.3,8.6,2.9c2.6,0.5,5.1,0.8,7.5,0.8
		c2.8,0,4.9-0.4,6.1-1.3c1.2-1,1.8-2.2,1.8-3.7c0-1.3-0.4-2.3-1.3-3.1c-0.8-0.7-1.9-1.2-3.3-1.5L342.4,79c-4.8-1-8.4-3-11-6
		c-2.6-3.1-3.9-7.1-3.9-12.1c0-4.6,1.1-8.5,3.3-11.8c2.3-3.4,5.4-5.9,9.3-7.7c4-1.9,8.5-2.8,13.7-2.8c3.4,0,6.6,0.3,9.4,0.9
		c2.8,0.5,5.6,1.5,8.3,3.1c1.7,0.8,2.9,1.9,3.6,3.5c0.7,1.5,1,3.1,0.8,4.8c-0.2,1.6-0.7,3.1-1.5,4.5c-0.8,1.3-1.8,2.3-3.2,2.8
		c-1.4,0.4-3,0.3-4.8-0.4c-2.5-1.2-4.8-2-6.8-2.5c-1.9-0.5-3.7-0.8-5.4-0.8c-3.1,0-5.4,0.5-6.7,1.5c-1.3,1-2,2.2-2,3.7
		c0,1.2,0.3,2.1,1,2.9c0.7,0.7,1.8,1.2,3.2,1.5l12.8,2.5c4.9,0.9,8.7,2.8,11.3,5.8c2.7,2.9,4,6.9,4,11.9c0,7.2-2.4,12.7-7.1,16.7
		C365.9,104.9,359.6,106.9,351.7,106.9z"/>
</mask>
<path class="st22" d="M351.7,106.9c-3.4,0-6.8-0.3-10.3-0.9c-3.4-0.5-6.6-1.5-9.4-3.1c-1.9-0.9-3.3-2.1-4.1-3.6
	c-0.8-1.5-1.1-3.1-1.1-4.8c0.1-1.7,0.5-3.2,1.3-4.5c0.8-1.4,1.9-2.4,3.2-2.9c1.4-0.6,2.9-0.6,4.6,0.1c3.2,1.3,6.1,2.3,8.6,2.9
	c2.6,0.5,5.1,0.8,7.5,0.8c2.8,0,4.9-0.4,6.1-1.3c1.2-1,1.8-2.2,1.8-3.7c0-1.3-0.4-2.3-1.3-3.1c-0.8-0.7-1.9-1.2-3.3-1.5L342.4,79
	c-4.8-1-8.4-3-11-6c-2.6-3.1-3.9-7.1-3.9-12.1c0-4.6,1.1-8.5,3.3-11.8c2.3-3.4,5.4-5.9,9.3-7.7c4-1.9,8.5-2.8,13.7-2.8
	c3.4,0,6.6,0.3,9.4,0.9c2.8,0.5,5.6,1.5,8.3,3.1c1.7,0.8,2.9,1.9,3.6,3.5c0.7,1.5,1,3.1,0.8,4.8c-0.2,1.6-0.7,3.1-1.5,4.5
	c-0.8,1.3-1.8,2.3-3.2,2.8c-1.4,0.4-3,0.3-4.8-0.4c-2.5-1.2-4.8-2-6.8-2.5c-1.9-0.5-3.7-0.8-5.4-0.8c-3.1,0-5.4,0.5-6.7,1.5
	c-1.3,1-2,2.2-2,3.7c0,1.2,0.3,2.1,1,2.9c0.7,0.7,1.8,1.2,3.2,1.5l12.8,2.5c4.9,0.9,8.7,2.8,11.3,5.8c2.7,2.9,4,6.9,4,11.9
	c0,7.2-2.4,12.7-7.1,16.7C365.9,104.9,359.6,106.9,351.7,106.9z"/>
</svg>
