<svg width="709" height="559" viewBox="0 0 709 559" fill="none" xmlns="http://www.w3.org/2000/svg">
<path d="M171.198 7.26151H356.229V105.83H171.198V7.26151Z" fill="#EFA1BD"/>
<path d="M359.688 105.83V7.26151H548.178V105.83H359.688Z" fill="#00A500"/>
<path d="M171.198 112.747H356.229V235.562C335.574 236.445 319 253.082 318.214 273.762L171.198 273.672V112.747Z" fill="#F4F4F4"/>
<path d="M318.231 277.221L171.198 277.131V436.12H356.229V315.034C335.703 314.156 319.207 297.721 318.231 277.221Z" fill="#004A8E"/>
<path d="M359.688 315.034V436.12H548.178V277.362L397.684 277.27C396.684 297.748 380.197 314.157 359.688 315.034Z" fill="#D5060B"/>
<path d="M397.704 273.811L548.178 273.904V112.747H359.688V235.562C380.359 236.446 396.944 253.108 397.704 273.811Z" fill="#FEAE01"/>
<path d="M171.198 443.037H356.229V541.605H171.198V443.037Z" fill="#D5060B"/>
<path d="M359.688 443.037V541.605H548.178V443.037H359.688Z" fill="#F4F4F4"/>
<path d="M553.366 443.037V541.606H670.956C688.147 541.606 702.083 527.67 702.083 510.479V371.273H676.144V404.993C676.144 426.004 659.111 443.037 638.1 443.037H553.366Z" fill="#004A8E"/>
<path d="M702.083 278.324V366.085H676.144V278.324H702.083Z" fill="#EFA1BD"/>
<path d="M669.227 404.993V278.324H623.57C622.448 280.628 620.084 282.215 617.349 282.215C614.614 282.215 612.25 280.628 611.127 278.324H553.366V436.12H638.1C655.291 436.12 669.227 422.184 669.227 404.993Z" fill="#00A500"/>
<path d="M623.921 273.137C623.014 270.375 620.414 268.381 617.349 268.381C614.283 268.381 611.684 270.375 610.776 273.137H553.366V112.747H638.1C655.291 112.747 669.227 126.683 669.227 143.874V273.137H623.921Z" fill="#F4F4F4"/>
<path d="M166.01 443.037V541.606H38.0438C20.853 541.606 6.91699 527.67 6.91699 510.479V371.273H38.0438V404.993C38.0438 426.004 55.0767 443.037 76.0877 443.037H166.01Z" fill="#004A8E"/>
<path d="M38.0438 366.085H6.91699V278.324H38.0438V366.085Z" fill="#00A500"/>
<path d="M38.0438 273.137H6.91699V38.3883C6.91699 21.1975 20.8529 7.26151 38.0438 7.26151H166.01V105.83H76.0877C55.0767 105.83 38.0438 122.863 38.0438 143.874V273.137Z" fill="#D5060B"/>
<path d="M76.0878 112.747H166.01V273.137H112.058C111.15 270.375 108.551 268.381 105.485 268.381C102.42 268.381 99.8204 270.375 98.9127 273.137H44.9609V143.874C44.9609 126.683 58.8969 112.747 76.0878 112.747Z" fill="#00A500"/>
<path d="M166.01 278.324H111.707C110.584 280.628 108.22 282.215 105.485 282.215C102.75 282.215 100.386 280.628 99.2636 278.324H44.9609V404.993C44.9609 422.184 58.8969 436.12 76.0878 436.12H166.01V278.324Z" fill="#EFA1BD"/>
<path d="M589.68 207.857V173.271H624.266V207.857H589.68Z" fill="#00A500"/>
<path d="M670.956 7.26151H553.366V105.83H638.1C659.111 105.83 676.144 122.863 676.144 143.874V273.137H702.083V38.3883C702.083 21.1975 688.147 7.26151 670.956 7.26151Z" fill="#00A500"/>
<path fill-rule="evenodd" clip-rule="evenodd" d="M582.763 169.813C582.763 167.903 584.312 166.354 586.222 166.354H627.724C629.634 166.354 631.183 167.903 631.183 169.813V211.315C631.183 213.225 629.634 214.774 627.724 214.774H586.222C584.312 214.774 582.763 213.225 582.763 211.315V169.813ZM582.763 169.813C582.763 167.903 584.312 166.354 586.222 166.354H627.724C629.634 166.354 631.183 167.903 631.183 169.813V211.315" fill="#EFA1BD"/>
<path d="M586.222 166.354C584.312 166.354 582.763 167.903 582.763 169.813V211.315C582.763 213.225 584.312 214.774 586.222 214.774H627.724C629.634 214.774 631.183 213.225 631.183 211.315V169.813C631.183 167.903 629.634 166.354 627.724 166.354H586.222Z" fill="#EFA1BD"/>
<path fill-rule="evenodd" clip-rule="evenodd" d="M670.956 545.522H359.688V555.898H356.229V545.522H38.0439C17.0328 545.522 2 528.49 2 507.479V35.3883C2 14.3772 17.0328 1.34442 38.0439 1.34442H670.956C691.967 1.34442 707 14.3773 707 35.3883V507.479C707 528.49 691.967 545.522 670.956 545.522ZM670.956 545.522H359.688V555.898H356.229V545.522H38.0439C17.0328 545.522 2 528.49 2 507.479V35.3883C2 14.3772 17.0328 1.34442 38.0439 1.34442M670.956 545.522H359.688V555.898H356.229V545.522M670.956 545.522H359.688V555.898H356.229V545.522M670.956 545.522H359.688V555.898H356.229V545.522H38.0439M670.956 545.522H359.688V555.898H356.229V545.522H38.0439M670.956 545.522H359.688V555.898H356.229V545.522H38.0439M670.956 545.522H359.688V555.898H356.229V545.522H38.0439M670.956 545.522H359.688V555.898H356.229V545.522M670.956 545.522H359.688V555.898H356.229V545.522M670.956 545.522H359.688V555.898H356.229V545.522H38.0439C17.0328 545.522 2 528.49 2 507.479V35.3883C2 14.3772 17.0328 1.34442 38.0439 1.34442M670.956 545.522H359.688V555.898H356.229V545.522M670.956 545.522H359.688V555.898H356.229V545.522H38.0439C17.0328 545.522 2 528.49 2 507.479V35.3883C2 14.3772 17.0328 1.34442 38.0439 1.34442M670.956 545.522H359.688V555.898H356.229V545.522H38.0439C17.0328 545.522 2 528.49 2 507.479V35.3883C2 14.3772 17.0328 1.34442 38.0439 1.34442M670.956 545.522H359.688V555.898H356.229V545.522H38.0439C17.0328 545.522 2 528.49 2 507.479V35.3883C2 14.3772 17.0328 1.34442 38.0439 1.34442M670.956 545.522H359.688V555.898H356.229V545.522M670.956 545.522H359.688V555.898H356.229V545.522H38.0439C17.0328 545.522 2 528.49 2 507.479V35.3883C2 14.3772 17.0328 1.34442 38.0439 1.34442M670.956 545.522H359.688V555.898H356.229V545.522H38.0439C17.0328 545.522 2 528.49 2 507.479V35.3883C2 14.3772 17.0328 1.34442 38.0439 1.34442M670.956 545.522H359.688V555.898H356.229V545.522H38.0439C17.0328 545.522 2 528.49 2 507.479V35.3883C2 14.3772 17.0328 1.34442 38.0439 1.34442" fill="white" fill-opacity="0.4"/>
<path fill-rule="evenodd" clip-rule="evenodd" d="M582.763 169.813C582.763 167.903 584.312 166.354 586.222 166.354H627.724C629.635 166.354 631.183 167.903 631.183 169.813V211.315C631.183 213.225 629.635 214.774 627.724 214.774H586.222C584.312 214.774 582.763 213.225 582.763 211.315V169.813ZM589.68 207.857V173.271H624.266V207.857H589.68Z" fill="black"/>
<path fill-rule="evenodd" clip-rule="evenodd" d="M670.956 548.522H359.688V558.898H356.229V548.522H38.0439C17.0328 548.522 0 531.49 0 510.479V38.3883C0 17.3772 17.0328 0.344421 38.0439 0.344421H670.956C691.967 0.344421 709 17.3773 709 38.3883V510.479C709 531.49 691.967 548.522 670.956 548.522ZM670.956 7.26149H553.366V105.83H638.1C659.111 105.83 676.144 122.863 676.144 143.874V273.137H702.083V38.3883C702.083 21.1975 688.147 7.26149 670.956 7.26149ZM171.198 7.26149H356.229V105.83H171.198V7.26149ZM359.688 105.83V7.26149H548.178V105.83H359.688ZM171.198 112.747H356.229V235.562C335.574 236.445 319 253.082 318.214 273.762L171.198 273.672V112.747ZM318.231 277.221L171.198 277.131V436.12H356.229V315.034C335.703 314.156 319.207 297.721 318.231 277.221ZM359.688 315.034V436.12H548.178V277.362L397.684 277.27C396.684 297.747 380.197 314.157 359.688 315.034ZM397.704 273.811L548.178 273.904V112.747H359.688V235.562C380.359 236.446 396.944 253.108 397.704 273.811ZM171.198 443.037H356.229V541.605H171.198V443.037ZM359.688 443.037V541.605H548.178V443.037H359.688ZM553.366 443.037V541.605H670.956C688.147 541.605 702.083 527.669 702.083 510.479V371.272H676.144V404.993C676.144 426.004 659.111 443.037 638.1 443.037H553.366ZM702.083 278.324V366.085H676.144V278.324H702.083ZM669.227 404.993V278.324H623.57C622.448 280.628 620.084 282.215 617.349 282.215C614.614 282.215 612.25 280.628 611.127 278.324H553.366V436.12H638.1C655.291 436.12 669.227 422.184 669.227 404.993ZM623.921 273.137C623.014 270.375 620.414 268.381 617.349 268.381C614.284 268.381 611.684 270.375 610.776 273.137H553.366V112.747H638.1C655.291 112.747 669.227 126.683 669.227 143.874V273.137H623.921ZM166.01 443.037V541.605H38.0439C20.853 541.605 6.91707 527.669 6.91707 510.479V371.272H38.0439V404.993C38.0439 426.004 55.0768 443.037 76.0878 443.037H166.01ZM38.0439 366.085H6.91707V278.324H38.0439V366.085ZM38.0439 273.137H6.91707V38.3883C6.91707 21.1974 20.853 7.26149 38.0439 7.26149H166.01V105.83H76.0878C55.0767 105.83 38.0439 122.863 38.0439 143.874V273.137ZM76.0878 112.747H166.01V273.137H112.058C111.15 270.375 108.551 268.381 105.485 268.381C102.42 268.381 99.8204 270.375 98.9127 273.137H44.961V143.874C44.961 126.683 58.8969 112.747 76.0878 112.747ZM166.01 278.324H111.707C110.585 280.628 108.22 282.215 105.485 282.215C102.75 282.215 100.386 280.628 99.2637 278.324H44.961V404.993C44.961 422.184 58.8969 436.12 76.0878 436.12H166.01V278.324Z" fill="black"/>
<path d="M48.4194 76.4322L63.9828 61.7335" stroke="black" stroke-opacity="0.5" stroke-width="5.18781" stroke-linecap="round"/>
<path d="M98.5681 76.4322L83.0047 61.7335" stroke="black" stroke-opacity="0.5" stroke-width="5.18781" stroke-linecap="round"/>
<circle cx="73.4938" cy="60.8688" r="10.3756" fill="white"/>
<circle cx="617.349" cy="275.298" r="6.91707" fill="white"/>
<path d="M74.3584 489.727C73.4412 489.727 72.5615 490.092 71.9129 490.74C71.2643 491.389 70.8999 492.269 70.8999 493.186C70.8999 495.105 72.4562 496.644 74.3584 496.644C76.2779 496.644 77.817 495.105 77.817 493.186C77.817 492.269 77.4526 491.389 76.804 490.74C76.1554 490.092 75.2757 489.727 74.3584 489.727Z" fill="white"/>
<path d="M396.867 275.298C396.867 296.787 379.447 314.207 357.958 314.207C336.47 314.207 319.05 296.787 319.05 275.298C319.05 253.81 336.47 236.39 357.958 236.39C379.447 236.39 396.867 253.81 396.867 275.298Z" fill="#9747FF"/>
<path d="M396.867 275.298C396.867 296.787 379.447 314.207 357.958 314.207C336.47 314.207 319.05 296.787 319.05 275.298C319.05 253.81 336.47 236.39 357.958 236.39C379.447 236.39 396.867 253.81 396.867 275.298Z" fill="white" fill-opacity="0.4"/>
<path d="M396.867 275.298C396.867 296.787 379.447 314.207 357.958 314.207C336.47 314.207 319.05 296.787 319.05 275.298C319.05 253.81 336.47 236.39 357.958 236.39C379.447 236.39 396.867 253.81 396.867 275.298Z" stroke="black" stroke-width="5.18781"/>
<path d="M259.753 507.954L249.015 497.215L253.908 492.321L259.753 498.183L276.839 481.081L281.732 485.975L259.753 507.954Z" fill="white"/>
<path d="M605.944 483.545C607.294 482.186 609.492 482.182 610.847 483.537L624.266 496.956L637.685 483.537C639.04 482.182 641.237 482.186 642.587 483.545C643.931 484.898 643.927 487.082 642.579 488.43L624.266 506.743L605.953 488.43C604.605 487.082 604.601 484.898 605.944 483.545Z" fill="white"/>
<path fill-rule="evenodd" clip-rule="evenodd" d="M486.797 62.042C486.165 61.3215 485.236 60.8688 484.195 60.8688H463.444C462.002 60.8688 460.775 61.7368 460.254 62.9821C460.775 61.7368 462.002 60.8689 463.444 60.8689H484.195C485.236 60.8689 486.165 61.3215 486.797 62.042ZM467.213 72.0399L466.28 72.9737H466.28L467.213 72.0399ZM463.444 57.4103H484.195C486.029 57.4103 487.789 58.1391 489.086 59.4363C490.383 60.7335 491.112 62.4929 491.112 64.3274H492.841V69.5152H491.112C491.112 71.3497 490.383 73.1091 489.086 74.4063C487.789 75.7035 486.029 76.4323 484.195 76.4323H478.851L475.756 73.285C475.082 72.6106 474.2 72.282 473.301 72.282C472.419 72.282 471.537 72.6106 470.862 73.285C467.923 76.2247 467.836 76.3285 467.767 76.4323H463.444C461.609 76.4323 459.85 75.7035 458.553 74.4063C457.255 73.1091 456.527 71.3497 456.527 69.5152H454.797V64.3274H456.527C456.527 62.4929 457.255 60.7335 458.553 59.4363C459.85 58.1391 461.609 57.4103 463.444 57.4103Z" fill="white"/>
<path d="M345.661 289.132H370.255V269.15H345.661M361.033 279.91V284.521H354.884V279.91H350.273L357.958 272.224L365.644 279.91M344.124 261.464H371.793V267.612H344.124" fill="white"/>
<circle cx="105.485" cy="275.298" r="6.91707" fill="white"/>
<path d="M210.499 181.18H214.596V190.848C214.596 191.997 214.321 192.992 213.771 193.832C213.226 194.667 212.464 195.313 211.487 195.77C210.509 196.222 209.374 196.448 208.082 196.448C206.78 196.448 205.641 196.222 204.663 195.77C203.685 195.313 202.924 194.667 202.379 193.832C201.838 192.992 201.568 191.997 201.568 190.848V181.18H205.665V190.494C205.665 190.961 205.768 191.378 205.975 191.747C206.181 192.11 206.466 192.395 206.829 192.602C207.198 192.808 207.615 192.911 208.082 192.911C208.554 192.911 208.971 192.808 209.335 192.602C209.698 192.395 209.983 192.11 210.19 191.747C210.396 191.378 210.499 190.961 210.499 190.494V181.18ZM220.694 196.271V181.18H227.208C228.328 181.18 229.308 181.401 230.148 181.843C230.988 182.285 231.642 182.906 232.109 183.707C232.575 184.508 232.809 185.444 232.809 186.515C232.809 187.595 232.568 188.531 232.086 189.322C231.61 190.113 230.939 190.722 230.075 191.15C229.215 191.577 228.21 191.791 227.061 191.791H223.17V188.607H226.235C226.717 188.607 227.127 188.524 227.466 188.357C227.81 188.185 228.073 187.942 228.255 187.627C228.441 187.313 228.535 186.942 228.535 186.515C228.535 186.082 228.441 185.714 228.255 185.409C228.073 185.1 227.81 184.864 227.466 184.702C227.127 184.535 226.717 184.451 226.235 184.451H224.791V196.271H220.694ZM238.462 196.271V181.18H242.559V192.97H248.661V196.271H238.462ZM268.5 188.725C268.5 190.406 268.173 191.823 267.52 192.977C266.866 194.127 265.985 194.999 264.874 195.593C263.764 196.183 262.526 196.478 261.16 196.478C259.785 196.478 258.542 196.18 257.432 195.586C256.326 194.987 255.447 194.112 254.793 192.963C254.145 191.808 253.821 190.396 253.821 188.725C253.821 187.045 254.145 185.63 254.793 184.481C255.447 183.326 256.326 182.454 257.432 181.865C258.542 181.27 259.785 180.973 261.16 180.973C262.526 180.973 263.764 181.27 264.874 181.865C265.985 182.454 266.866 183.326 267.52 184.481C268.173 185.63 268.5 187.045 268.5 188.725ZM264.285 188.725C264.285 187.821 264.164 187.06 263.924 186.441C263.688 185.817 263.337 185.345 262.87 185.026C262.408 184.702 261.838 184.54 261.16 184.54C260.482 184.54 259.91 184.702 259.443 185.026C258.981 185.345 258.63 185.817 258.39 186.441C258.154 187.06 258.036 187.821 258.036 188.725C258.036 189.629 258.154 190.393 258.39 191.017C258.63 191.636 258.981 192.108 259.443 192.432C259.91 192.751 260.482 192.911 261.16 192.911C261.838 192.911 262.408 192.751 262.87 192.432C263.337 192.108 263.688 191.636 263.924 191.017C264.164 190.393 264.285 189.629 264.285 188.725ZM277.514 196.271H273.092L278.074 181.18H283.674L288.656 196.271H284.234L280.933 185.336H280.815L277.514 196.271ZM276.688 190.317H285.001V193.383H276.688V190.317ZM300.066 196.271H294.259V181.18H300.007C301.56 181.18 302.901 181.482 304.031 182.086C305.166 182.685 306.04 183.55 306.654 184.68C307.273 185.805 307.583 187.153 307.583 188.725C307.583 190.297 307.276 191.648 306.662 192.778C306.047 193.903 305.178 194.768 304.053 195.372C302.928 195.972 301.599 196.271 300.066 196.271ZM298.357 192.793H299.919C300.666 192.793 301.302 192.673 301.827 192.432C302.358 192.191 302.761 191.776 303.036 191.187C303.316 190.597 303.456 189.777 303.456 188.725C303.456 187.674 303.314 186.854 303.029 186.264C302.749 185.675 302.336 185.259 301.791 185.019C301.25 184.778 300.587 184.658 299.801 184.658H298.357V192.793ZM321.294 181.18H325.863L328.81 187.311H328.928L331.876 181.18H336.445L330.903 191.526V196.271H326.835V191.526L321.294 181.18ZM355.497 188.725C355.497 190.406 355.17 191.823 354.517 192.977C353.863 194.127 352.982 194.999 351.871 195.593C350.761 196.183 349.523 196.478 348.157 196.478C346.782 196.478 345.539 196.18 344.429 195.586C343.323 194.987 342.444 194.112 341.79 192.963C341.142 191.808 340.818 190.396 340.818 188.725C340.818 187.045 341.142 185.63 341.79 184.481C342.444 183.326 343.323 182.454 344.429 181.865C345.539 181.27 346.782 180.973 348.157 180.973C349.523 180.973 350.761 181.27 351.871 181.865C352.982 182.454 353.863 183.326 354.517 184.481C355.17 185.63 355.497 187.045 355.497 188.725ZM351.282 188.725C351.282 187.821 351.161 187.06 350.921 186.441C350.685 185.817 350.334 185.345 349.867 185.026C349.405 184.702 348.835 184.54 348.157 184.54C347.479 184.54 346.907 184.702 346.44 185.026C345.979 185.345 345.627 185.817 345.387 186.441C345.151 187.06 345.033 187.821 345.033 188.725C345.033 189.629 345.151 190.393 345.387 191.017C345.627 191.636 345.979 192.108 346.44 192.432C346.907 192.751 347.479 192.911 348.157 192.911C348.835 192.911 349.405 192.751 349.867 192.432C350.334 192.108 350.685 191.636 350.921 191.017C351.161 190.393 351.282 189.629 351.282 188.725ZM370.474 181.18H374.571V190.848C374.571 191.997 374.296 192.992 373.746 193.832C373.201 194.667 372.439 195.313 371.462 195.77C370.484 196.222 369.349 196.448 368.057 196.448C366.755 196.448 365.615 196.222 364.638 195.77C363.66 195.313 362.899 194.667 362.353 193.832C361.813 192.992 361.543 191.997 361.543 190.848V181.18H365.64V190.494C365.64 190.961 365.743 191.378 365.949 191.747C366.156 192.11 366.441 192.395 366.804 192.602C367.173 192.808 367.59 192.911 368.057 192.911C368.529 192.911 368.946 192.808 369.31 192.602C369.673 192.395 369.958 192.11 370.165 191.747C370.371 191.378 370.474 190.961 370.474 190.494V181.18ZM380.669 196.271V181.18H387.183C388.303 181.18 389.283 181.383 390.123 181.791C390.963 182.199 391.617 182.786 392.083 183.552C392.55 184.319 392.783 185.237 392.783 186.308C392.783 187.389 392.543 188.3 392.061 189.042C391.585 189.784 390.914 190.344 390.05 190.722C389.19 191.101 388.185 191.29 387.036 191.29H383.145V188.106H386.21C386.692 188.106 387.102 188.047 387.441 187.93C387.785 187.807 388.048 187.613 388.229 187.347C388.416 187.082 388.509 186.736 388.509 186.308C388.509 185.876 388.416 185.525 388.229 185.255C388.048 184.979 387.785 184.778 387.441 184.65C387.102 184.518 386.692 184.451 386.21 184.451H384.766V196.271H380.669ZM389.512 189.344L393.285 196.271H388.834L385.149 189.344H389.512ZM406.964 196.271V181.18H417.576V184.481H411.062V187.075H416.927V190.376H411.062V196.271H406.964ZM437.853 188.725C437.853 190.406 437.527 191.823 436.873 192.977C436.22 194.127 435.338 194.999 434.228 195.593C433.117 196.183 431.879 196.478 430.514 196.478C429.138 196.478 427.895 196.18 426.785 195.586C425.68 194.987 424.8 194.112 424.147 192.963C423.498 191.808 423.174 190.396 423.174 188.725C423.174 187.045 423.498 185.63 424.147 184.481C424.8 183.326 425.68 182.454 426.785 181.865C427.895 181.27 429.138 180.973 430.514 180.973C431.879 180.973 433.117 181.27 434.228 181.865C435.338 182.454 436.22 183.326 436.873 184.481C437.527 185.63 437.853 187.045 437.853 188.725ZM433.638 188.725C433.638 187.821 433.518 187.06 433.277 186.441C433.041 185.817 432.69 185.345 432.223 185.026C431.762 184.702 431.192 184.54 430.514 184.54C429.836 184.54 429.263 184.702 428.797 185.026C428.335 185.345 427.984 185.817 427.743 186.441C427.507 187.06 427.389 187.821 427.389 188.725C427.389 189.629 427.507 190.393 427.743 191.017C427.984 191.636 428.335 192.108 428.797 192.432C429.263 192.751 429.836 192.911 430.514 192.911C431.192 192.911 431.762 192.751 432.223 192.432C432.69 192.108 433.041 191.636 433.277 191.017C433.518 190.393 433.638 189.629 433.638 188.725ZM443.899 196.271V181.18H447.996V192.97H454.098V196.271H443.899ZM465.711 196.271H459.904V181.18H465.652C467.205 181.18 468.546 181.482 469.676 182.086C470.811 182.685 471.685 183.55 472.299 184.68C472.918 185.805 473.228 187.153 473.228 188.725C473.228 190.297 472.921 191.648 472.307 192.778C471.692 193.903 470.823 194.768 469.698 195.372C468.573 195.972 467.244 196.271 465.711 196.271ZM464.002 192.793H465.564C466.311 192.793 466.947 192.673 467.472 192.432C468.003 192.191 468.406 191.776 468.681 191.187C468.961 190.597 469.101 189.777 469.101 188.725C469.101 187.674 468.959 186.854 468.674 186.264C468.394 185.675 467.981 185.259 467.436 185.019C466.895 184.778 466.232 184.658 465.446 184.658H464.002V192.793ZM479.274 196.271V181.18H490.15V184.481H483.371V187.075H489.59V190.376H483.371V192.97H490.121V196.271H479.274ZM496.333 196.271V181.18H502.847C503.967 181.18 504.947 181.383 505.787 181.791C506.627 182.199 507.28 182.786 507.747 183.552C508.214 184.319 508.447 185.237 508.447 186.308C508.447 187.389 508.207 188.3 507.725 189.042C507.249 189.784 506.578 190.344 505.713 190.722C504.854 191.101 503.849 191.29 502.699 191.29H498.809V188.106H501.874C502.356 188.106 502.766 188.047 503.105 187.93C503.449 187.807 503.711 187.613 503.893 187.347C504.08 187.082 504.173 186.736 504.173 186.308C504.173 185.876 504.08 185.525 503.893 185.255C503.711 184.979 503.449 184.778 503.105 184.65C502.766 184.518 502.356 184.451 501.874 184.451H500.43V196.271H496.333ZM505.175 189.344L508.948 196.271H504.497L500.813 189.344H505.175Z" fill="black"/>
</svg>
